<?xml version="1.0" encoding="utf-8"?>
<!-- Generator: Adobe Illustrator 19.0.0, SVG Export Plug-In . SVG Version: 6.00 Build 0)  -->
<svg version="1.1"
	 id="Layer_1" xmlns:rdf="http://www.w3.org/1999/02/22-rdf-syntax-ns#" xmlns:cc="http://creativecommons.org/ns#" xmlns:dc="http://purl.org/dc/elements/1.1/"
	 xmlns="http://www.w3.org/2000/svg" xmlns:xlink="http://www.w3.org/1999/xlink" x="0px" y="0px" viewBox="-339 206.1 279.8 149.9"
	 style="enable-background:new -339 206.1 279.8 149.9;" xml:space="preserve">
<style type="text/css">
	.st0{fill:#FFFFFF;}
</style>
<path class="st0" d="M-159.2,271.6"/>
<path class="st0" d="M-180.6,292.3l0.1-15.4c14.2,1.8,25.8,3.7,25.8,7.2C-154.6,287.8-165.2,290.8-180.6,292.3z M-207.8,292.9
	l0.1-3.2c-0.2-8.8,0.2-19.8,0.4-31.4c7.1,0.7,16.1,2.6,16,7.7l-0.2,27.1c-2.6,0.1-5.3,0.1-7.9,0.1
	C-202.4,293.1-205.2,293-207.8,292.9L-207.8,292.9z M-244.2,284.1c0-3.5,12.8-5.4,25.7-7.3c0,4.1-0.1,8.6-0.2,13.6v1.9
	C-234,290.8-244.2,287.8-244.2,284.1z M-188.9,240.8c1.6,11.4-10.1,15.1-18.4,16.3c0.1-8.3-0.1-16.7-0.8-25
	C-198.2,233.1-189.6,235.5-188.9,240.8z M-180.4,276.7l0.1-13.4c0-8.3-11.5-7.4-15.2-7c4.4-0.8,19.4-4.4,18.5-18.2
	c-0.6-9-12-13.6-30.7-11.8c-0.4,0-0.6,0.1-1,0.1c-0.8-6.6-2.2-13-4.3-19.3c-2.3,6.7-4,13.6-5,20.6c-6.7,1.1-13.4,2.6-19.9,4.6
	c6.5-0.5,13-0.7,19.4-0.6c-1.2,12,0.1,23.3,0,45c-19.8-0.6-37.1,3.2-36.8,9c0.2,5.2,15.5,9.8,36.8,11.6l1,29.2l1.4-19.8
	c0.1-2.4,1.9-2.2,1.9-0.1l0.6,25.9l1.7-21.1c0-2.9,1.9-2.6,1.8-0.1l0.7,27l1.3-40.3c2.8,0.1,5.5,0.1,8.4,0.1c2.8,0,5.4,0,7.9-0.1
	l1.3,41.2l1.1-21.6c0-2.8,1.9-2.6,1.9-0.1l1.1,30.1l1.2-26c0-2.5,2-2.4,2.2,0l0.8,34.6l1.4-58.7c21.6-1.8,37.3-6.6,37.3-11.6
	C-143.5,280-160.4,275.7-180.4,276.7z"/>
<path class="st0" d="M-158.5,270.9"/>
<path class="st0" d="M-179.6,291.3l0.1-15.5c14.2,1.8,25.8,3.8,25.8,7.2C-153.7,286.9-164.3,290-179.6,291.3z M-190.7,292
	c-2.5,0-5.3,0.1-7.9,0.1c-2.9,0-5.5-0.1-8.3-0.1l0.1-3.4c-0.2-8.6,0.2-19.7,0.4-31.4c7.1,0.8,16.1,2.6,16,7.7L-190.7,292z
	 M-207.1,231.2c9.7,1,18.5,3.2,19.2,8.6c1.4,11.4-10.1,15.1-18.5,16.3C-206.2,247.8-206.5,239.5-207.1,231.2z M-217.8,291.3
	c-15.2-1.3-25.6-4.4-25.6-8.3c0-3.4,12.8-5.3,25.7-7.2c0,4.1-0.1,8.6-0.2,13.6L-217.8,291.3z M-179.5,275.7l0.1-13.4
	c0-8.3-11.4-7.4-15.1-7c4.3-0.8,19.3-4.4,18.5-18.2c-0.6-9-12-13.6-30.8-11.8c-0.2,0-0.6,0.1-0.8,0.1c-0.8-6.6-2.3-13-4.4-19.3
	c-2.2,6.7-3.9,13.6-5,20.5c-6.7,1.2-13.4,2.7-19.9,4.7c6.5-0.5,13-0.7,19.6-0.6c-1.2,12,0,23.3,0,45c-19.8-0.6-37.1,3.1-36.8,9
	c0.1,5.2,15.5,9.8,36.8,11.6l0.8,29.2l1.6-19.8c0-2.4,1.8-2.3,1.8-0.1l0.7,25.9l1.6-21.1c0-2.9,1.9-2.8,1.9-0.1l0.7,27l1.3-40.3
	c2.8,0.1,5.5,0.1,8.4,0.1c2.6,0,5.4,0,7.9-0.1l1.2,41.2l1.2-21.6c0-2.6,1.8-2.6,1.8-0.1l1.2,30.1l1.1-26c0.1-2.5,2.2-2.4,2.2,0
	l1,34.6l1.3-58.7v-0.1c21.7-1.8,37.3-6.5,37.3-11.5C-142.6,279.2-159.6,274.9-179.5,275.7z"/>
</svg>
